<?xml version="1.0" standalone="no"?>
<!DOCTYPE svg PUBLIC "-//W3C//DTD SVG 20010904//EN"
 "http://www.w3.org/TR/2001/REC-SVG-20010904/DTD/svg10.dtd">
<svg version="1.0" xmlns="http://www.w3.org/2000/svg"
 width="250.000000pt" height="250.000000pt" viewBox="0 0 250.000000 250.000000"
 preserveAspectRatio="xMidYMid meet">

<g transform="translate(0.000000,250.000000) scale(0.100000,-0.100000)"
fill="#000000" stroke="none">
<path d="M0 1250 l0 -1250 1250 0 1250 0 0 1250 0 1250 -1250 0 -1250 0 0
-1250z m910 565 l0 -55 -100 0 -100 0 0 -145 0 -145 90 0 90 0 0 -60 0 -60
-90 0 -90 0 0 -200 0 -200 -60 0 -60 0 0 460 0 460 160 0 160 0 0 -55z m1163
-127 c50 -26 60 -69 26 -112 -16 -20 -29 -26 -58 -26 -42 0 -65 19 -76 62 -6
22 -1 33 23 58 33 32 51 36 85 18z m-791 -10 c48 -14 94 -64 108 -119 7 -26
10 -123 8 -268 l-3 -228 -28 -40 c-16 -24 -45 -48 -70 -59 -52 -24 -149 -24
-193 -1 -39 20 -81 69 -92 105 -4 15 -7 131 -7 257 l0 230 28 48 c46 78 143
107 249 75z m476 -8 c26 -16 32 -17 32 -5 0 12 14 15 60 15 l60 0 0 -422 c-1
-444 -3 -471 -47 -520 -44 -50 -142 -71 -223 -48 -69 19 -120 95 -120 177 l0
33 60 0 c54 0 60 -2 60 -20 0 -35 29 -79 56 -86 61 -16 94 34 94 144 l0 53
-26 -20 c-57 -45 -147 -35 -202 22 -43 44 -52 102 -52 328 0 190 10 270 38
309 43 58 147 78 210 40z"/>
<path d="M2012 1673 c-21 -8 -34 -51 -22 -73 26 -48 93 -45 106 5 12 50 -34
88 -84 68z m47 -12 c18 -12 22 -81 4 -81 -7 0 -13 7 -13 15 0 8 -4 15 -10 15
-5 0 -10 -7 -10 -15 0 -8 -4 -15 -10 -15 -11 0 -14 73 -3 83 9 9 25 8 42 -2z"/>
<path d="M2030 1640 c0 -5 5 -10 10 -10 6 0 10 5 10 10 0 6 -4 10 -10 10 -5 0
-10 -4 -10 -10z"/>
<path d="M1152 1557 c-21 -22 -22 -31 -22 -239 0 -191 2 -218 18 -236 28 -34
102 -30 118 5 10 24 18 352 9 410 -3 24 -15 53 -26 64 -26 26 -71 24 -97 -4z"/>
<path d="M1661 1554 c-20 -25 -21 -39 -21 -239 0 -188 2 -215 18 -233 28 -34
102 -30 118 5 10 24 18 352 9 410 -3 24 -15 53 -26 64 -28 28 -73 25 -98 -7z"/>
</g>
</svg>
